<mxfile host="app.diagrams.net" modified="2023-10-22T05:56:05.748Z" agent="Mozilla/5.0 (Windows NT 10.0; Win64; x64) AppleWebKit/537.36 (KHTML, like Gecko) Chrome/118.0.0.0 Safari/537.36" etag="v74EXMbpNmDc9hPNuEa0" version="22.0.6" type="github">
  <diagram name="第 1 页" id="7kd5joYrSZXjuvtQCRew">
    <mxGraphModel dx="3034" dy="1658" grid="1" gridSize="10" guides="1" tooltips="1" connect="1" arrows="1" fold="1" page="1" pageScale="1" pageWidth="1600" pageHeight="900" math="0" shadow="0">
      <root>
        <mxCell id="0" />
        <mxCell id="1" parent="0" />
        <mxCell id="7UY_o9HQVxMq3NoRRrBo-3" value="" style="group" vertex="1" connectable="0" parent="1">
          <mxGeometry x="-1370" y="-740" width="1058.5" height="458" as="geometry" />
        </mxCell>
        <mxCell id="7ffGkYcC8iVlpXu7Yn99-1" value="&lt;h1 style=&quot;text-align:right&quot;&gt;&lt;font color=&quot;#e6d0de&quot; style=&quot;background-color: rgb(86, 114, 143);&quot;&gt;四資二乙&lt;span style=&quot;&quot; lang=&quot;EN-US&quot;&gt; B11090088 &lt;/span&gt;&lt;span style=&quot;font-family: 新細明體, serif;&quot;&gt;古莉婷&lt;/span&gt;&lt;/font&gt;&lt;/h1&gt;&lt;p style=&quot;text-align:right&quot; align=&quot;right&quot; class=&quot;MsoNormal&quot;&gt;&lt;span lang=&quot;EN-US&quot;&gt;&lt;/span&gt;&lt;/p&gt;" style="text;html=1;align=center;verticalAlign=middle;resizable=0;points=[];autosize=1;strokeColor=none;fillColor=none;" parent="7UY_o9HQVxMq3NoRRrBo-3" vertex="1">
          <mxGeometry x="405" width="330" height="80" as="geometry" />
        </mxCell>
        <mxCell id="qmR3wCavuqO_SwzsPEjH-1" value="&lt;font size=&quot;1&quot; style=&quot;&quot;&gt;&lt;b style=&quot;font-size: 22px;&quot;&gt;課程&lt;/b&gt;&lt;/font&gt;" style="rounded=0;whiteSpace=wrap;html=1;strokeWidth=3;fillColor=none;strokeColor=#EA6B66;" parent="7UY_o9HQVxMq3NoRRrBo-3" vertex="1">
          <mxGeometry x="786" y="266" width="167" height="60" as="geometry" />
        </mxCell>
        <mxCell id="qmR3wCavuqO_SwzsPEjH-34" style="rounded=0;orthogonalLoop=1;jettySize=auto;html=1;exitX=0.5;exitY=0;exitDx=0;exitDy=0;endArrow=none;endFill=0;strokeWidth=3;strokeColor=#EA6B66;entryX=0.814;entryY=1.017;entryDx=0;entryDy=0;entryPerimeter=0;" parent="7UY_o9HQVxMq3NoRRrBo-3" source="qmR3wCavuqO_SwzsPEjH-2" target="qmR3wCavuqO_SwzsPEjH-1" edge="1">
          <mxGeometry relative="1" as="geometry">
            <mxPoint x="890" y="340" as="targetPoint" />
          </mxGeometry>
        </mxCell>
        <mxCell id="qmR3wCavuqO_SwzsPEjH-2" value="&lt;font style=&quot;font-size: 22px;&quot;&gt;&lt;b&gt;&lt;u&gt;課程編號&lt;/u&gt;&lt;/b&gt;&lt;/font&gt;" style="ellipse;whiteSpace=wrap;html=1;strokeWidth=3;strokeColor=#EA6B66;" parent="7UY_o9HQVxMq3NoRRrBo-3" vertex="1">
          <mxGeometry x="860" y="400" width="168.5" height="58" as="geometry" />
        </mxCell>
        <mxCell id="P_hz2zrQ8UL6yeKM-LDb-2" style="rounded=0;orthogonalLoop=1;jettySize=auto;html=1;entryX=0.75;entryY=0;entryDx=0;entryDy=0;strokeWidth=3;strokeColor=#EA6B66;endArrow=none;endFill=0;" parent="7UY_o9HQVxMq3NoRRrBo-3" source="qmR3wCavuqO_SwzsPEjH-4" target="qmR3wCavuqO_SwzsPEjH-1" edge="1">
          <mxGeometry relative="1" as="geometry" />
        </mxCell>
        <mxCell id="qmR3wCavuqO_SwzsPEjH-4" value="&lt;font style=&quot;font-size: 22px;&quot;&gt;&lt;b&gt;名稱&lt;/b&gt;&lt;/font&gt;" style="ellipse;whiteSpace=wrap;html=1;strokeWidth=3;strokeColor=#EA6B66;" parent="7UY_o9HQVxMq3NoRRrBo-3" vertex="1">
          <mxGeometry x="890" y="110" width="168.5" height="58" as="geometry" />
        </mxCell>
        <mxCell id="qmR3wCavuqO_SwzsPEjH-13" value="&lt;span style=&quot;font-size: 22px;&quot;&gt;&lt;b&gt;教授學生&lt;/b&gt;&lt;/span&gt;" style="rounded=0;whiteSpace=wrap;html=1;strokeWidth=3;fillColor=none;strokeColor=#EA6B66;" parent="7UY_o9HQVxMq3NoRRrBo-3" vertex="1">
          <mxGeometry x="180" y="266" width="167" height="60" as="geometry" />
        </mxCell>
        <mxCell id="qmR3wCavuqO_SwzsPEjH-25" style="rounded=0;orthogonalLoop=1;jettySize=auto;html=1;exitX=0.5;exitY=0;exitDx=0;exitDy=0;entryX=0.75;entryY=1;entryDx=0;entryDy=0;endArrow=none;endFill=0;strokeWidth=3;strokeColor=#EA6B66;" parent="7UY_o9HQVxMq3NoRRrBo-3" source="qmR3wCavuqO_SwzsPEjH-14" target="qmR3wCavuqO_SwzsPEjH-13" edge="1">
          <mxGeometry relative="1" as="geometry" />
        </mxCell>
        <mxCell id="qmR3wCavuqO_SwzsPEjH-14" value="&lt;span style=&quot;font-size: 22px;&quot;&gt;&lt;b&gt;&lt;u&gt;編號&lt;/u&gt;&lt;/b&gt;&lt;/span&gt;" style="ellipse;whiteSpace=wrap;html=1;strokeWidth=3;strokeColor=#EA6B66;" parent="7UY_o9HQVxMq3NoRRrBo-3" vertex="1">
          <mxGeometry x="278.5" y="382" width="168.5" height="58" as="geometry" />
        </mxCell>
        <mxCell id="qmR3wCavuqO_SwzsPEjH-24" style="rounded=0;orthogonalLoop=1;jettySize=auto;html=1;exitX=0.5;exitY=0;exitDx=0;exitDy=0;entryX=0.25;entryY=1;entryDx=0;entryDy=0;endArrow=none;endFill=0;strokeWidth=3;strokeColor=#EA6B66;" parent="7UY_o9HQVxMq3NoRRrBo-3" source="qmR3wCavuqO_SwzsPEjH-15" target="qmR3wCavuqO_SwzsPEjH-13" edge="1">
          <mxGeometry relative="1" as="geometry" />
        </mxCell>
        <mxCell id="qmR3wCavuqO_SwzsPEjH-15" value="&lt;font style=&quot;font-size: 22px;&quot;&gt;&lt;b&gt;姓名&lt;/b&gt;&lt;/font&gt;" style="ellipse;whiteSpace=wrap;html=1;strokeWidth=3;strokeColor=#EA6B66;" parent="7UY_o9HQVxMq3NoRRrBo-3" vertex="1">
          <mxGeometry x="40" y="362" width="168.5" height="58" as="geometry" />
        </mxCell>
        <mxCell id="qmR3wCavuqO_SwzsPEjH-23" style="rounded=0;orthogonalLoop=1;jettySize=auto;html=1;entryX=0.25;entryY=0;entryDx=0;entryDy=0;endArrow=none;endFill=0;strokeWidth=3;strokeColor=#EA6B66;" parent="7UY_o9HQVxMq3NoRRrBo-3" source="qmR3wCavuqO_SwzsPEjH-16" target="qmR3wCavuqO_SwzsPEjH-13" edge="1">
          <mxGeometry relative="1" as="geometry" />
        </mxCell>
        <mxCell id="qmR3wCavuqO_SwzsPEjH-16" value="&lt;font style=&quot;font-size: 22px;&quot;&gt;&lt;b&gt;地址&lt;/b&gt;&lt;/font&gt;" style="ellipse;whiteSpace=wrap;html=1;strokeWidth=3;strokeColor=#EA6B66;" parent="7UY_o9HQVxMq3NoRRrBo-3" vertex="1">
          <mxGeometry y="190" width="168.5" height="58" as="geometry" />
        </mxCell>
        <mxCell id="qmR3wCavuqO_SwzsPEjH-22" style="rounded=0;orthogonalLoop=1;jettySize=auto;html=1;entryX=0.75;entryY=0;entryDx=0;entryDy=0;strokeWidth=3;startArrow=none;startFill=0;endArrow=none;endFill=0;strokeColor=#EA6B66;" parent="7UY_o9HQVxMq3NoRRrBo-3" source="qmR3wCavuqO_SwzsPEjH-17" target="qmR3wCavuqO_SwzsPEjH-13" edge="1">
          <mxGeometry relative="1" as="geometry" />
        </mxCell>
        <mxCell id="qmR3wCavuqO_SwzsPEjH-17" value="&lt;span style=&quot;font-size: 22px;&quot;&gt;&lt;b&gt;電話&lt;/b&gt;&lt;/span&gt;" style="ellipse;whiteSpace=wrap;html=1;strokeWidth=3;strokeColor=#EA6B66;" parent="7UY_o9HQVxMq3NoRRrBo-3" vertex="1">
          <mxGeometry x="208.5" y="132" width="168.5" height="58" as="geometry" />
        </mxCell>
        <mxCell id="qmR3wCavuqO_SwzsPEjH-27" style="rounded=0;orthogonalLoop=1;jettySize=auto;html=1;entryX=0;entryY=0.5;entryDx=0;entryDy=0;endArrow=none;endFill=0;strokeColor=#EA6B66;strokeWidth=3;" parent="7UY_o9HQVxMq3NoRRrBo-3" source="qmR3wCavuqO_SwzsPEjH-19" target="qmR3wCavuqO_SwzsPEjH-1" edge="1">
          <mxGeometry relative="1" as="geometry" />
        </mxCell>
        <mxCell id="qmR3wCavuqO_SwzsPEjH-19" value="&lt;font style=&quot;font-size: 22px;&quot;&gt;&lt;b&gt;註冊&lt;/b&gt;&lt;/font&gt;" style="rhombus;whiteSpace=wrap;html=1;strokeWidth=3;fillColor=none;strokeColor=#EA6B66;" parent="7UY_o9HQVxMq3NoRRrBo-3" vertex="1">
          <mxGeometry x="484.5" y="256" width="150" height="80" as="geometry" />
        </mxCell>
        <mxCell id="P_hz2zrQ8UL6yeKM-LDb-1" style="rounded=0;orthogonalLoop=1;jettySize=auto;html=1;exitX=1;exitY=0.5;exitDx=0;exitDy=0;entryX=0;entryY=0.5;entryDx=0;entryDy=0;startArrow=none;startFill=0;endArrow=none;endFill=0;strokeWidth=3;strokeColor=#EA6B66;" parent="7UY_o9HQVxMq3NoRRrBo-3" source="qmR3wCavuqO_SwzsPEjH-13" target="qmR3wCavuqO_SwzsPEjH-19" edge="1">
          <mxGeometry relative="1" as="geometry" />
        </mxCell>
        <mxCell id="qmR3wCavuqO_SwzsPEjH-35" value="&lt;font style=&quot;font-size: 22px;&quot;&gt;&lt;b&gt;M&lt;/b&gt;&lt;/font&gt;" style="text;html=1;align=center;verticalAlign=middle;resizable=0;points=[];autosize=1;strokeColor=none;fillColor=none;" parent="7UY_o9HQVxMq3NoRRrBo-3" vertex="1">
          <mxGeometry x="390" y="256" width="40" height="40" as="geometry" />
        </mxCell>
        <mxCell id="qmR3wCavuqO_SwzsPEjH-37" value="&lt;font style=&quot;font-size: 22px;&quot;&gt;&lt;b&gt;N&lt;/b&gt;&lt;/font&gt;" style="text;html=1;align=center;verticalAlign=middle;resizable=0;points=[];autosize=1;strokeColor=none;fillColor=none;" parent="7UY_o9HQVxMq3NoRRrBo-3" vertex="1">
          <mxGeometry x="690" y="256" width="40" height="40" as="geometry" />
        </mxCell>
        <mxCell id="7UY_o9HQVxMq3NoRRrBo-2" style="rounded=0;orthogonalLoop=1;jettySize=auto;html=1;exitX=0.5;exitY=1;exitDx=0;exitDy=0;entryX=0.5;entryY=0;entryDx=0;entryDy=0;endArrow=none;endFill=0;strokeWidth=3;strokeColor=#EA6B66;" edge="1" parent="7UY_o9HQVxMq3NoRRrBo-3" source="7UY_o9HQVxMq3NoRRrBo-1" target="qmR3wCavuqO_SwzsPEjH-19">
          <mxGeometry relative="1" as="geometry" />
        </mxCell>
        <mxCell id="7UY_o9HQVxMq3NoRRrBo-1" value="&lt;span style=&quot;font-size: 22px;&quot;&gt;&lt;b&gt;成績&lt;/b&gt;&lt;/span&gt;" style="ellipse;whiteSpace=wrap;html=1;strokeWidth=3;strokeColor=#EA6B66;" vertex="1" parent="7UY_o9HQVxMq3NoRRrBo-3">
          <mxGeometry x="475.25" y="150" width="168.5" height="58" as="geometry" />
        </mxCell>
      </root>
    </mxGraphModel>
  </diagram>
</mxfile>
